# xmcd
#
# Track frame offsets: 
#        150
#        34426
#        62520
#        83506
#        128386
#        150628
#        172674
#        193813
#        218050
#        239150
#        266561
#        277755
#
# Disc length: 4041 seconds
#
# Revision: 0
# Processed by: cddbd v1.5.2PL0 Copyright (c) Steve Scherf et al.
# Submitted via: ExactAudioCopy v0.99pb5
#
DISCID=9a0fc70c
DTITLE=Suzi Stern - Inside Stories
DYEAR=2000
DGENRE=Jazz
TTITLE0=So What
TTITLE1=The End Of The World
TTITLE2=It Might As Well Be Spring
TTITLE3=Bye Bye Blackbird
TTITLE4=Hiding Places
TTITLE5=Sweet Lorraine
TTITLE6=If I Should Lose You
TTITLE7=Blue In Green
TTITLE8=I Got Rhythm
TTITLE9=Milano
TTITLE10=Sweet Georgia Bright
TTITLE11=4-B's Duet
EXTD=
EXTT0=
EXTT1=
EXTT2=
EXTT3=
EXTT4=
EXTT5=
EXTT6=
EXTT7=
EXTT8=
EXTT9=
EXTT10=
EXTT11=
PLAYORDER=
